<svg version="1.1" id="Layer_1" xmlns="http://www.w3.org/2000/svg" xmlns:xlink="http://www.w3.org/1999/xlink" x="0px" y="0px"
	 width="100%" viewBox="0 0 2000 2215" enable-background="new 0 0 2000 2215" xml:space="preserve">

<path fill="#A73E23" opacity="1.000000" stroke="none" 
	d="
M1003.596375,2194.406250 
	C990.942444,2194.127686 978.245544,2194.415283 965.643066,2193.458984 
	C934.471252,2191.093262 903.241699,2188.997314 872.219116,2185.265137 
	C817.917114,2178.732910 764.518494,2167.368408 711.933228,2152.258545 
	C631.529541,2129.155029 554.891968,2097.150879 482.476562,2055.181396 
	C427.861084,2023.528198 376.486481,1987.337280 329.058380,1945.601318 
	C286.078217,1907.779419 248.990036,1864.764648 216.221176,1817.943481 
	C167.572189,1748.432007 130.692642,1672.906738 102.007011,1593.251221 
	C75.416138,1519.412476 56.329754,1443.634888 43.687790,1366.195679 
	C37.519951,1328.414307 32.214222,1290.538208 29.606112,1252.324219 
	C28.247574,1232.418945 27.119093,1212.497070 25.641123,1192.600830 
	C22.403679,1149.018921 22.977089,1105.363647 24.552570,1061.792236 
	C26.066164,1019.932434 29.029144,978.075989 35.406487,936.595947 
	C40.261074,905.020325 44.174911,873.204895 51.058434,842.060059 
	C59.961426,801.777893 70.354485,761.748718 81.984413,722.162476 
	C102.140213,653.555847 130.611954,588.250793 164.426331,525.285522 
	C199.231552,460.475220 240.886475,400.385254 289.376312,345.053406 
	C362.125092,262.039581 447.137848,194.343719 544.231079,141.927841 
	C632.841919,94.091187 727.016418,61.795509 825.656189,42.040108 
	C865.527954,34.054668 905.760376,28.766474 946.131836,24.323818 
	C950.752991,23.815287 955.443298,23.935074 961.933105,23.757584 
	C985.887024,23.725796 1008.009460,23.699951 1030.131836,23.674107 
	C1053.370728,25.128550 1076.654175,26.080223 1099.839844,28.134634 
	C1161.722534,33.617859 1222.398682,45.427338 1281.877319,63.520023 
	C1358.164917,86.725792 1429.960327,119.911972 1498.226440,160.802475 
	C1550.359375,192.029404 1599.019409,228.060669 1644.369995,268.602448 
	C1709.848511,327.137787 1766.128540,393.484039 1813.565308,467.289246 
	C1845.869873,517.550476 1873.074463,570.540100 1896.082886,625.708740 
	C1923.098633,690.486023 1943.068359,757.410767 1957.172852,826.072144 
	C1965.010376,864.225098 1971.282104,902.708496 1974.186768,941.588989 
	C1976.763062,976.075134 1979.094727,1010.614624 1980.122192,1045.172607 
	C1981.408325,1088.421387 1982.632690,1131.754883 1981.328369,1174.974609 
	C1980.025513,1218.143799 1976.062256,1261.260254 1972.367676,1304.322754 
	C1967.751465,1358.126831 1958.336060,1411.222290 1946.239380,1463.827393 
	C1930.068604,1534.150269 1907.418823,1602.279907 1877.237305,1667.901978 
	C1858.403931,1708.850220 1836.586426,1748.106812 1811.764526,1785.666992 
	C1784.167969,1827.425781 1753.009521,1866.367432 1718.598877,1902.788208 
	C1683.969604,1939.440674 1646.417725,1972.720947 1606.189819,2003.013794 
	C1524.345093,2064.645508 1435.040527,2112.077637 1337.506470,2143.838623 
	C1283.544800,2161.410645 1228.591309,2174.823975 1172.331177,2182.216309 
	C1136.399780,2186.937256 1100.271973,2190.206787 1064.194946,2193.746826 
	C1054.944458,2194.654785 1045.552734,2194.123047 1034.349609,2194.227051 
	C1022.847717,2194.269775 1013.222046,2194.337891 1003.596375,2194.406250 
M1932.790283,1178.870483 
	C1925.817871,1178.685791 1918.845337,1178.501221 1910.020508,1178.153809 
	C1866.104980,1178.261841 1822.189331,1178.369873 1776.426880,1178.052124 
	C1759.771240,1178.037598 1743.115723,1178.010498 1726.460083,1178.010498 
	C1181.091187,1178.010254 635.722412,1178.012329 90.353569,1178.015137 
	C86.688957,1178.015137 83.015182,1177.878418 79.363480,1178.099365 
	C77.448402,1178.215210 75.571991,1178.970337 72.664352,1180.842407 
	C72.559914,1183.835327 72.287628,1186.833252 72.376091,1189.820435 
	C73.813217,1238.349976 77.968025,1286.592041 85.496094,1334.614624 
	C99.011711,1420.833008 121.732765,1504.621948 150.558853,1586.828979 
	C156.842056,1604.747559 164.379028,1622.299438 172.430191,1639.509644 
	C187.945602,1672.675537 203.908981,1705.642822 220.304535,1738.383057 
	C236.916473,1771.555420 261.627014,1799.568604 280.666595,1831.229858 
	C283.055634,1835.202637 286.208099,1838.729614 289.120941,1842.371826 
	C311.927490,1870.889893 338.284241,1895.852295 366.825623,1918.452515 
	C462.361542,1994.101685 568.299438,2051.141602 682.371033,2093.335449 
	C700.611145,2100.082275 719.484619,2105.151611 738.162964,2110.665527 
	C749.840698,2114.112793 761.680786,2117.020996 773.485901,2120.022217 
	C784.329956,2122.779297 795.126587,2125.880615 806.118408,2127.864502 
	C827.032471,2131.639404 848.110474,2134.499023 869.045837,2138.164795 
	C887.211487,2141.345703 905.452942,2143.480225 925.353638,2144.713867 
	C929.692932,2144.962891 934.032288,2145.211670 940.081970,2145.610352 
	C944.671570,2145.770752 949.261230,2145.931152 955.399658,2146.643311 
	C962.365601,2146.868652 969.331482,2147.094238 978.128967,2147.479736 
	C999.308472,2147.461182 1020.487976,2147.442383 1043.485962,2147.864746 
	C1051.043579,2147.280518 1058.601074,2146.696289 1067.880493,2146.061523 
	C1072.459473,2145.851807 1077.038330,2145.641846 1083.208008,2145.830811 
	C1086.873535,2145.281250 1090.539062,2144.731445 1095.835327,2144.083496 
	C1099.094971,2143.894287 1102.354736,2143.705078 1107.141479,2143.890869 
	C1110.152344,2143.313721 1113.163330,2142.736816 1117.866699,2142.045654 
	C1131.812012,2140.038086 1145.772339,2138.129395 1159.698730,2135.997803 
	C1177.209595,2133.317139 1194.849854,2131.196777 1212.158203,2127.531494 
	C1264.729858,2116.399414 1316.217896,2101.552979 1366.386963,2082.059570 
	C1463.869019,2044.182129 1552.623535,1991.834839 1630.874756,1922.366577 
	C1668.724976,1888.764771 1705.920166,1854.289673 1733.947144,1811.431519 
	C1734.847046,1810.055420 1736.146484,1808.937012 1737.280273,1807.717651 
	C1755.478516,1788.146484 1771.572876,1766.950439 1786.216919,1744.616699 
	C1821.415405,1690.934692 1845.958496,1632.306396 1865.842529,1571.627686 
	C1894.306274,1484.765991 1910.614014,1395.279907 1921.983521,1304.794800 
	C1924.329224,1286.126953 1926.397095,1267.417725 1928.194336,1248.689331 
	C1930.324585,1226.493774 1932.023438,1204.256836 1934.268433,1181.029297 
	C1934.179688,1180.683716 1934.090820,1180.338013 1932.790283,1178.870483 
M1023.949463,70.196152 
	C1006.419128,70.176796 988.888000,70.070213 971.359070,70.218445 
	C968.201660,70.245148 965.053162,71.320686 960.102844,71.986076 
	C946.975525,73.305809 933.842834,74.575287 920.722107,75.957199 
	C901.716370,77.958923 882.623596,79.407700 863.743347,82.255539 
	C841.589844,85.597122 819.308716,88.957718 797.652710,94.526077 
	C766.789001,102.461998 736.059082,111.298874 705.940063,121.687820 
	C526.814941,183.473465 382.995972,292.782166 272.496643,446.247314 
	C199.950546,547.001648 148.875336,658.172058 113.895737,776.999512 
	C113.241013,779.223694 112.391075,781.493835 112.376045,783.747437 
	C112.370712,784.545959 114.585754,785.359253 117.273415,786.792725 
	C121.646523,787.015991 126.019630,787.239258 132.107361,787.639526 
	C150.298096,790.394714 168.453644,793.414673 186.688400,795.838684 
	C209.854202,798.918030 232.033920,805.507874 253.880920,813.503479 
	C298.710114,829.910217 339.023560,854.478943 377.209900,882.620483 
	C419.039795,913.447205 460.413208,944.894897 501.884338,976.206055 
	C519.690857,989.650269 537.237366,1003.438782 554.919250,1017.048523 
	C556.165344,1018.007629 557.554077,1018.781433 559.338440,1019.941895 
	C560.873535,1013.842285 562.631775,1008.519226 563.522278,1003.054749 
	C570.854004,958.061279 584.393921,915.029663 603.997009,873.896912 
	C670.938171,733.435791 805.238098,633.316101 967.251404,619.794678 
	C971.559448,619.230957 975.867554,618.667236 982.027710,618.057312 
	C997.970459,618.064331 1013.913208,618.071289 1031.381592,618.610107 
	C1036.376831,618.906433 1041.372070,619.202820 1048.000977,619.721008 
	C1051.190186,620.468689 1054.349976,621.388916 1057.573364,621.935364 
	C1075.063232,624.900085 1092.882202,626.533691 1110.019897,630.870361 
	C1264.199463,669.885559 1368.672974,764.565613 1424.395996,913.283691 
	C1437.305908,947.738770 1443.379272,983.765503 1448.206177,1020.860168 
	C1448.855835,1020.682556 1449.505615,1020.504883 1451.240723,1019.529846 
	C1467.946533,1006.280334 1484.649536,993.027344 1501.358643,979.782043 
	C1552.538818,939.211731 1604.039795,899.069214 1658.705566,863.209839 
	C1692.725708,840.893555 1727.598145,820.022034 1765.627441,805.186462 
	C1780.749390,799.287354 1796.328491,794.210632 1812.101685,790.443604 
	C1824.180786,787.558838 1837.055298,788.137390 1849.280396,785.695801 
	C1864.534180,782.649353 1879.890625,781.155579 1895.307495,779.747681 
	C1896.793701,779.612000 1898.210327,778.717346 1899.498169,778.235352 
	C1892.127686,755.829590 1885.207642,733.978027 1877.768188,712.304688 
	C1812.179688,521.225464 1700.343018,363.653015 1536.718506,244.129181 
	C1431.474487,167.250916 1314.578613,116.050163 1186.891968,89.819290 
	C1166.531250,85.636543 1145.840088,83.003410 1125.248657,80.019653 
	C1108.330078,77.568123 1091.332764,75.659691 1072.917847,72.757927 
	C1067.898804,72.531532 1062.879761,72.305138 1056.196289,72.056282 
	C1052.872314,71.903748 1049.548340,71.751221 1044.741577,70.879112 
	C1038.426392,70.686768 1032.111328,70.494423 1023.949463,70.196152 
M987.691833,1133.879272 
	C1061.923706,1133.885254 1136.155518,1133.911621 1210.387207,1133.828857 
	C1213.645630,1133.825317 1216.902832,1132.823364 1221.958618,1132.167725 
	C1228.548584,1131.976196 1235.138672,1131.784668 1243.389404,1131.880249 
	C1247.646484,1131.293213 1251.903564,1130.706177 1257.828491,1130.052734 
	C1261.046387,1129.390137 1264.237793,1128.357544 1267.486572,1128.123901 
	C1291.654785,1126.385986 1313.340088,1117.373169 1333.932983,1105.371826 
	C1356.192871,1092.398682 1375.729858,1075.769653 1395.195068,1059.050659 
	C1398.925781,1055.846313 1399.770996,1052.199829 1399.766968,1047.631714 
	C1399.743164,1020.892761 1396.758911,994.484436 1391.000122,968.403625 
	C1355.082397,805.735107 1212.918091,681.635193 1044.825317,666.815552 
	C1039.169067,666.579956 1033.512939,666.344360 1026.003418,666.096680 
	C1014.724548,666.105713 1003.445618,666.114746 990.418457,665.839417 
	C984.849060,666.394043 979.279602,666.948669 971.990417,667.702393 
	C959.509949,669.443115 946.911133,670.584717 934.568542,673.023254 
	C862.413574,687.278564 798.426025,718.821350 742.826233,766.657654 
	C668.085999,830.961914 619.478577,910.164795 609.127441,1009.941284 
	C607.596497,1024.698242 608.914673,1039.750610 608.914673,1054.101318 
	C626.986877,1064.687744 644.845093,1074.993774 662.544495,1085.565918 
	C676.552612,1093.933228 690.081665,1103.141235 704.350037,1111.022705 
	C717.122925,1118.078003 730.615051,1123.831299 745.145325,1130.876953 
	C748.180969,1131.097168 751.216553,1131.317505 756.047791,1131.708618 
	C763.271484,1131.883789 770.495178,1132.058960 779.293213,1132.837280 
	C782.594666,1133.157349 785.896057,1133.755981 789.197571,1133.756348 
	C854.733032,1133.764404 920.268433,1133.703369 987.691833,1133.879272 
M1377.902832,1132.561035 
	C1495.230225,1132.526001 1612.557739,1132.470337 1729.885132,1132.463989 
	C1797.214966,1132.460327 1864.544678,1132.537231 1932.448853,1132.722046 
	C1933.087036,1132.708740 1933.568604,1132.422119 1934.051758,1130.010376 
	C1933.484985,1110.048218 1933.226562,1090.071533 1932.285645,1070.126953 
	C1930.482300,1031.902466 1928.789307,993.661194 1926.098022,955.494019 
	C1924.086182,926.965088 1920.873291,898.507446 1917.584961,870.088745 
	C1916.366089,859.554993 1913.796875,849.121521 1911.127319,838.828064 
	C1908.643677,829.251587 1906.794434,828.094971 1897.128296,828.295227 
	C1890.484863,828.432800 1883.861450,829.339783 1877.217773,829.684265 
	C1841.970581,831.512024 1808.018311,839.190002 1775.293579,852.300293 
	C1738.193237,867.163635 1705.002808,888.789734 1673.053833,912.380737 
	C1602.584839,964.414551 1532.454712,1016.908264 1461.870361,1068.784546 
	C1433.166260,1089.880737 1403.640991,1109.859619 1373.871826,1130.798950 
	C1374.592529,1131.398315 1375.313232,1131.997803 1377.902832,1132.561035 
M644.587891,1129.565796 
	C598.047546,1104.001587 553.837463,1074.806274 511.447113,1042.915161 
	C463.772369,1007.048584 416.787720,970.263489 369.044312,934.489929 
	C332.434692,907.058838 293.836060,882.690613 251.950653,863.913757 
	C206.638992,843.601074 159.546127,831.695190 109.472298,834.049316 
	C99.455559,834.520264 98.995682,834.553162 97.037445,844.530457 
	C93.445099,862.833557 89.942970,881.166443 86.993134,899.581360 
	C79.136810,948.625732 73.927856,997.974609 72.105820,1047.612793 
	C71.274933,1070.248901 71.776184,1092.936035 71.789261,1115.600098 
	C71.800072,1134.336792 72.314415,1132.433838 88.948822,1132.436768 
	C263.278900,1132.467163 437.609009,1132.454712 611.939087,1132.456787 
	C622.604492,1132.456909 633.269836,1132.477173 644.663940,1132.791138 
	C645.050232,1131.923096 645.436523,1131.055176 644.587891,1129.565796 
z"/>
<path fill="#625249" opacity="1.000000" stroke="none" 
	d="
M1029.383057,23.312214 
	C1008.009460,23.699951 985.887024,23.725796 962.827271,23.608856 
	C962.820496,23.146368 963.752197,22.544294 964.681335,22.548397 
	C985.999207,22.642450 1007.316772,22.802538 1029.383057,23.312214 
z"/>
<path fill="#8F5348" opacity="1.000000" stroke="none" 
	d="
M1004.349854,2194.798828 
	C1013.222046,2194.337891 1022.847717,2194.269775 1033.439453,2194.284180 
	C1024.638184,2194.641846 1014.870728,2194.916504 1004.349854,2194.798828 
z"/>
<path fill="#66B2FF" opacity="1.000000" stroke="none" 
	d="
M1933.909180,1182.037842 
	C1932.023438,1204.256836 1930.324585,1226.493774 1928.194336,1248.689331 
	C1926.397095,1267.417725 1924.329224,1286.126953 1921.983521,1304.794800 
	C1910.614014,1395.279907 1894.306274,1484.765991 1865.842529,1571.627686 
	C1845.958496,1632.306396 1821.415405,1690.934692 1786.216919,1744.616699 
	C1771.572876,1766.950439 1755.478516,1788.146484 1737.280273,1807.717651 
	C1736.146484,1808.937012 1734.847046,1810.055420 1733.947144,1811.431519 
	C1705.920166,1854.289673 1668.724976,1888.764771 1630.874756,1922.366577 
	C1552.623535,1991.834839 1463.869019,2044.182129 1366.386963,2082.059570 
	C1316.217896,2101.552979 1264.729858,2116.399414 1212.158203,2127.531494 
	C1194.849854,2131.196777 1177.209595,2133.317139 1159.698730,2135.997803 
	C1145.772339,2138.129395 1131.812012,2140.038086 1116.249146,2141.959717 
	C1111.625854,2142.421143 1108.620117,2142.968506 1105.614380,2143.515869 
	C1102.354736,2143.705078 1099.094971,2143.894287 1094.217773,2143.971191 
	C1088.939209,2144.383545 1085.278198,2144.907959 1081.617310,2145.432129 
	C1077.038330,2145.641846 1072.459473,2145.851807 1066.109131,2145.913818 
	C1056.781006,2146.318604 1049.224243,2146.871338 1041.667480,2147.423828 
	C1020.487976,2147.442383 999.308472,2147.461182 976.473267,2147.018799 
	C967.828613,2146.402588 960.839722,2146.247070 953.850830,2146.091553 
	C949.261230,2145.931152 944.671570,2145.770752 938.521606,2145.143555 
	C932.600281,2144.481201 928.239197,2144.285645 923.878174,2144.089844 
	C905.452942,2143.480225 887.211487,2141.345703 869.045837,2138.164795 
	C848.110474,2134.499023 827.032471,2131.639404 806.118408,2127.864502 
	C795.126587,2125.880615 784.329956,2122.779297 773.485901,2120.022217 
	C761.680786,2117.020996 749.840698,2114.112793 738.162964,2110.665527 
	C719.484619,2105.151611 700.611145,2100.082275 682.371033,2093.335449 
	C568.299438,2051.141602 462.361542,1994.101685 366.825623,1918.452515 
	C338.284241,1895.852295 311.927490,1870.889893 289.120941,1842.371826 
	C286.208099,1838.729614 283.055634,1835.202637 280.666595,1831.229858 
	C261.627014,1799.568604 236.916473,1771.555420 220.304535,1738.383057 
	C203.908981,1705.642822 187.945602,1672.675537 172.430191,1639.509644 
	C164.379028,1622.299438 156.842056,1604.747559 150.558853,1586.828979 
	C121.732765,1504.621948 99.011711,1420.833008 85.496094,1334.614624 
	C77.968025,1286.592041 73.813217,1238.349976 72.376091,1189.820435 
	C72.287628,1186.833252 72.559914,1183.835327 74.108078,1180.327637 
	C80.214806,1179.877197 84.877808,1179.997803 89.540810,1179.997925 
	C635.989868,1180.004517 1182.438843,1180.003174 1728.887939,1179.995117 
	C1745.213989,1179.994873 1761.540161,1179.919678 1778.808350,1179.986816 
	C1793.702393,1180.071777 1807.654297,1180.067505 1821.606201,1180.023193 
	C1851.833740,1179.927002 1882.061401,1179.810181 1913.171143,1179.720581 
	C1920.000122,1179.852295 1925.946899,1179.965088 1932.241089,1180.393066 
	C1933.001831,1181.177979 1933.442017,1181.621216 1933.909180,1182.037842 
z"/>
<path fill="#FEE5A4" opacity="1.000000" stroke="none" 
	d="
M1046.224365,71.598686 
	C1049.548340,71.751221 1052.872314,71.903748 1057.797119,72.319153 
	C1064.388794,72.891525 1069.379639,73.201035 1074.370361,73.510544 
	C1091.332764,75.659691 1108.330078,77.568123 1125.248657,80.019653 
	C1145.840088,83.003410 1166.531250,85.636543 1186.891968,89.819290 
	C1314.578613,116.050163 1431.474487,167.250916 1536.718506,244.129181 
	C1700.343018,363.653015 1812.179688,521.225464 1877.768188,712.304688 
	C1885.207642,733.978027 1892.127686,755.829590 1899.498169,778.235352 
	C1898.210327,778.717346 1896.793701,779.612000 1895.307495,779.747681 
	C1879.890625,781.155579 1864.534180,782.649353 1849.280396,785.695801 
	C1837.055298,788.137390 1824.180786,787.558838 1812.101685,790.443604 
	C1796.328491,794.210632 1780.749390,799.287354 1765.627441,805.186462 
	C1727.598145,820.022034 1692.725708,840.893555 1658.705566,863.209839 
	C1604.039795,899.069214 1552.538818,939.211731 1501.358643,979.782043 
	C1484.649536,993.027344 1467.946533,1006.280334 1450.142334,1019.880127 
	C1448.674805,1020.185242 1448.305908,1020.140076 1447.936890,1020.094849 
	C1443.379272,983.765503 1437.305908,947.738770 1424.395996,913.283691 
	C1368.672974,764.565613 1264.199463,669.885559 1110.019897,630.870361 
	C1092.882202,626.533691 1075.063232,624.900085 1057.573364,621.935364 
	C1054.349976,621.388916 1051.190186,620.468689 1046.460205,619.227051 
	C1039.898193,618.514832 1034.877075,618.296570 1029.855957,618.078247 
	C1013.913208,618.071289 997.970459,618.064331 980.269653,617.927246 
	C974.205200,618.340820 969.898804,618.884460 965.592346,619.428101 
	C805.238098,633.316101 670.938171,733.435791 603.997009,873.896912 
	C584.393921,915.029663 570.854004,958.061279 563.522278,1003.054749 
	C562.631775,1008.519226 560.873535,1013.842285 559.338440,1019.941895 
	C557.554077,1018.781433 556.165344,1018.007629 554.919250,1017.048523 
	C537.237366,1003.438782 519.690857,989.650269 501.884338,976.206055 
	C460.413208,944.894897 419.039795,913.447205 377.209900,882.620483 
	C339.023560,854.478943 298.710114,829.910217 253.880920,813.503479 
	C232.033920,805.507874 209.854202,798.918030 186.688400,795.838684 
	C168.453644,793.414673 150.298096,790.394714 130.533035,787.170349 
	C124.568184,786.522705 120.177658,786.344299 115.787140,786.165833 
	C114.585754,785.359253 112.370712,784.545959 112.376045,783.747437 
	C112.391075,781.493835 113.241013,779.223694 113.895737,776.999512 
	C148.875336,658.172058 199.950546,547.001648 272.496643,446.247314 
	C382.995972,292.782166 526.814941,183.473465 705.940063,121.687820 
	C736.059082,111.298874 766.789001,102.461998 797.652710,94.526077 
	C819.308716,88.957718 841.589844,85.597122 863.743347,82.255539 
	C882.623596,79.407700 901.716370,77.958923 920.722107,75.957199 
	C933.842834,74.575287 946.975525,73.305809 961.941345,72.027252 
	C984.634888,71.941933 1005.489929,71.815437 1027.232788,71.711380 
	C1034.155151,71.688774 1040.189819,71.643730 1046.224365,71.598686 
z"/>
<path fill="#FFCC66" opacity="1.000000" stroke="none" 
	d="
M1046.311523,667.502625 
	C1212.918091,681.635193 1355.082397,805.735107 1391.000122,968.403625 
	C1396.758911,994.484436 1399.743164,1020.892761 1399.766968,1047.631714 
	C1399.770996,1052.199829 1398.925781,1055.846313 1395.195068,1059.050659 
	C1375.729858,1075.769653 1356.192871,1092.398682 1333.932983,1105.371826 
	C1313.340088,1117.373169 1291.654785,1126.385986 1267.486572,1128.123901 
	C1264.237793,1128.357544 1261.046387,1129.390137 1256.162842,1129.979492 
	C1250.240967,1130.468506 1245.984741,1131.030884 1241.728638,1131.593018 
	C1235.138672,1131.784668 1228.548584,1131.976196 1220.116699,1132.079346 
	C1200.342529,1132.006958 1182.410156,1132.015747 1164.477905,1132.040405 
	C1105.033325,1132.122070 1045.588745,1132.209473 985.203186,1132.168335 
	C916.736145,1131.969727 849.210205,1131.894897 781.684204,1131.842163 
	C780.362549,1131.841187 779.040649,1132.097778 777.718872,1132.234131 
	C770.495178,1132.058960 763.271484,1131.883789 754.474365,1131.274902 
	C749.863892,1130.613770 746.826904,1130.386475 743.789856,1130.159058 
	C730.615051,1123.831299 717.122925,1118.078003 704.350037,1111.022705 
	C690.081665,1103.141235 676.552612,1093.933228 662.544495,1085.565918 
	C644.845093,1074.993774 626.986877,1064.687744 608.914673,1054.101318 
	C608.914673,1039.750610 607.596497,1024.698242 609.127441,1009.941284 
	C619.478577,910.164795 668.085999,830.961914 742.826233,766.657654 
	C798.426025,718.821350 862.413574,687.278564 934.568542,673.023254 
	C946.911133,670.584717 959.509949,669.443115 973.727295,667.761902 
	C981.031677,667.255554 986.599243,666.689697 992.166748,666.123840 
	C1003.445618,666.114746 1014.724548,666.105713 1027.696533,666.362488 
	C1035.030396,666.919739 1040.670898,667.211182 1046.311523,667.502625 
z"/>
<path fill="#FF5E4D" opacity="1.000000" stroke="none" 
	d="
M643.935242,1132.488159 
	C633.269836,1132.477173 622.604492,1132.456909 611.939087,1132.456787 
	C437.609009,1132.454712 263.278900,1132.467163 88.948822,1132.436768 
	C72.314415,1132.433838 71.800072,1134.336792 71.789261,1115.600098 
	C71.776184,1092.936035 71.274933,1070.248901 72.105820,1047.612793 
	C73.927856,997.974609 79.136810,948.625732 86.993134,899.581360 
	C89.942970,881.166443 93.445099,862.833557 97.037445,844.530457 
	C98.995682,834.553162 99.455559,834.520264 109.472298,834.049316 
	C159.546127,831.695190 206.638992,843.601074 251.950653,863.913757 
	C293.836060,882.690613 332.434692,907.058838 369.044312,934.489929 
	C416.787720,970.263489 463.772369,1007.048584 511.447113,1042.915161 
	C553.837463,1074.806274 598.047546,1104.001587 644.925171,1130.284424 
	C644.821777,1131.499512 644.379395,1131.994629 643.935242,1132.488159 
z"/>
<path fill="#FF5E4D" opacity="1.000000" stroke="none" 
	d="
M1374.489258,1130.346924 
	C1403.640991,1109.859619 1433.166260,1089.880737 1461.870361,1068.784546 
	C1532.454712,1016.908264 1602.584839,964.414551 1673.053833,912.380737 
	C1705.002808,888.789734 1738.193237,867.163635 1775.293579,852.300293 
	C1808.018311,839.190002 1841.970581,831.512024 1877.217773,829.684265 
	C1883.861450,829.339783 1890.484863,828.432800 1897.128296,828.295227 
	C1906.794434,828.094971 1908.643677,829.251587 1911.127319,838.828064 
	C1913.796875,849.121521 1916.366089,859.554993 1917.584961,870.088745 
	C1920.873291,898.507446 1924.086182,926.965088 1926.098022,955.494019 
	C1928.789307,993.661194 1930.482300,1031.902466 1932.285645,1070.126953 
	C1933.226562,1090.071533 1933.484985,1110.048218 1933.461914,1131.097656 
	C1932.539429,1132.316162 1932.206909,1132.447144 1931.874512,1132.577881 
	C1864.544678,1132.537231 1797.214966,1132.460327 1729.885132,1132.463989 
	C1612.557739,1132.470337 1495.230225,1132.526001 1376.705322,1132.203369 
	C1375.119507,1131.379517 1374.779907,1130.879883 1374.489258,1130.346924 
z"/>
<path fill="#967790" opacity="1.000000" stroke="none" 
	d="
M1777.866211,1179.879395 
	C1761.540161,1179.919678 1745.213989,1179.994873 1728.887939,1179.995117 
	C1182.438843,1180.003174 635.989868,1180.004517 89.540810,1179.997925 
	C84.877808,1179.997803 80.214806,1179.877197 74.614960,1179.624756 
	C75.571991,1178.970337 77.448402,1178.215210 79.363480,1178.099365 
	C83.015182,1177.878418 86.688957,1178.015137 90.353569,1178.015137 
	C635.722412,1178.012329 1181.091187,1178.010254 1726.460083,1178.010498 
	C1743.115723,1178.010498 1759.771240,1178.037598 1777.266846,1178.620850 
	C1778.106934,1179.189453 1777.866211,1179.879395 1777.866211,1179.879395 
z"/>
<path fill="#D46434" opacity="1.000000" stroke="none" 
	d="
M986.144226,1132.294678 
	C1045.588745,1132.209473 1105.033325,1132.122070 1164.477905,1132.040405 
	C1182.410156,1132.015747 1200.342529,1132.006958 1219.217773,1132.138672 
	C1216.902832,1132.823364 1213.645630,1133.825317 1210.387207,1133.828857 
	C1136.155518,1133.911621 1061.923706,1133.885254 986.833740,1133.427979 
	C985.975708,1132.976562 986.144226,1132.294556 986.144226,1132.294678 
z"/>
<path fill="#E98745" opacity="1.000000" stroke="none" 
	d="
M985.203186,1132.168213 
	C986.144226,1132.294556 985.975708,1132.976562 985.889771,1133.316406 
	C920.268433,1133.703369 854.733032,1133.764404 789.197571,1133.756348 
	C785.896057,1133.755981 782.594666,1133.157349 778.506042,1132.535767 
	C779.040649,1132.097778 780.362549,1131.841187 781.684204,1131.842163 
	C849.210205,1131.894897 916.736145,1131.969727 985.203186,1132.168213 
z"/>
<path fill="#7EA2E0" opacity="1.000000" stroke="none" 
	d="
M1778.808350,1179.986816 
	C1777.866211,1179.879395 1778.106934,1179.189453 1778.190430,1178.833740 
	C1822.189331,1178.369873 1866.104980,1178.261841 1911.049683,1178.581787 
	C1912.078857,1179.009888 1912.288940,1179.701904 1912.288940,1179.701904 
	C1882.061401,1179.810181 1851.833740,1179.927002 1821.606201,1180.023193 
	C1807.654297,1180.067505 1793.702393,1180.071777 1778.808350,1179.986816 
z"/>
<path fill="#DCCD91" opacity="1.000000" stroke="none" 
	d="
M1026.344971,71.688942 
	C1005.489929,71.815437 984.634888,71.941933 962.840210,71.990204 
	C965.053162,71.320686 968.201660,70.245148 971.359070,70.218445 
	C988.888000,70.070213 1006.419128,70.176796 1025.010376,70.595680 
	C1026.071289,70.995209 1026.344971,71.688942 1026.344971,71.688942 
z"/>
<path fill="#767A95" opacity="1.000000" stroke="none" 
	d="
M1042.576660,2147.644287 
	C1049.224243,2146.871338 1056.781006,2146.318604 1065.248291,2145.938965 
	C1058.601074,2146.696289 1051.043579,2147.280518 1042.576660,2147.644287 
z"/>
<path fill="#757D9C" opacity="1.000000" stroke="none" 
	d="
M954.625244,2146.367432 
	C960.839722,2146.247070 967.828613,2146.402588 975.557495,2146.938721 
	C969.331482,2147.094238 962.365601,2146.868652 954.625244,2146.367432 
z"/>
<path fill="#8F83A7" opacity="1.000000" stroke="none" 
	d="
M1913.171143,1179.720703 
	C1912.288940,1179.701904 1912.078857,1179.009888 1911.975830,1178.663330 
	C1918.845337,1178.501221 1925.817871,1178.685791 1932.868652,1179.440918 
	C1932.595947,1180.033569 1932.244873,1180.055786 1931.893799,1180.077881 
	C1925.946899,1179.965088 1920.000122,1179.852295 1913.171143,1179.720703 
z"/>
<path fill="#BC8D5F" opacity="1.000000" stroke="none" 
	d="
M1027.232788,71.711380 
	C1026.344971,71.688942 1026.071289,70.995209 1025.933716,70.648643 
	C1032.111328,70.494423 1038.426392,70.686768 1045.482910,71.238899 
	C1040.189819,71.643730 1034.155151,71.688774 1027.232788,71.711380 
z"/>
<path fill="#C28C47" opacity="1.000000" stroke="none" 
	d="
M1045.568359,667.159058 
	C1040.670898,667.211182 1035.030396,666.919739 1028.623291,666.368530 
	C1033.512939,666.344360 1039.169067,666.579956 1045.568359,667.159058 
z"/>
<path fill="#C18946" opacity="1.000000" stroke="none" 
	d="
M991.292603,665.981628 
	C986.599243,666.689697 981.031677,667.255554 974.587158,667.662354 
	C979.279602,666.948669 984.849060,666.394043 991.292603,665.981628 
z"/>
<path fill="#C29868" opacity="1.000000" stroke="none" 
	d="
M1073.644043,73.134232 
	C1069.379639,73.201035 1064.388794,72.891525 1058.629395,72.330383 
	C1062.879761,72.305138 1067.898804,72.531532 1073.644043,73.134232 
z"/>
<path fill="#E2885C" opacity="1.000000" stroke="none" 
	d="
M1030.618774,618.344238 
	C1034.877075,618.296570 1039.898193,618.514832 1045.643311,619.116150 
	C1041.372070,619.202820 1036.376831,618.906433 1030.618774,618.344238 
z"/>
<path fill="#E48B5E" opacity="1.000000" stroke="none" 
	d="
M966.421875,619.611389 
	C969.898804,618.884460 974.205200,618.340820 979.343628,617.950317 
	C975.867554,618.667236 971.559448,619.230957 966.421875,619.611389 
z"/>
<path fill="#797388" opacity="1.000000" stroke="none" 
	d="
M924.615906,2144.401855 
	C928.239197,2144.285645 932.600281,2144.481201 937.666443,2145.068848 
	C934.032288,2145.211670 929.692932,2144.962891 924.615906,2144.401855 
z"/>
<path fill="#E2885C" opacity="1.000000" stroke="none" 
	d="
M116.530273,786.479248 
	C120.177658,786.344299 124.568184,786.522705 129.675720,787.081848 
	C126.019630,787.239258 121.646523,787.015991 116.530273,786.479248 
z"/>
<path fill="#E47E41" opacity="1.000000" stroke="none" 
	d="
M1242.559082,1131.736694 
	C1245.984741,1131.030884 1250.240967,1130.468506 1255.328857,1130.012695 
	C1251.903564,1130.706177 1247.646484,1131.293213 1242.559082,1131.736694 
z"/>
<path fill="#78758D" opacity="1.000000" stroke="none" 
	d="
M1082.412598,2145.631348 
	C1085.278198,2144.907959 1088.939209,2144.383545 1093.402344,2144.020508 
	C1090.539062,2144.731445 1086.873535,2145.281250 1082.412598,2145.631348 
z"/>
<path fill="#7B7184" opacity="1.000000" stroke="none" 
	d="
M1106.377930,2143.703613 
	C1108.620117,2142.968506 1111.625854,2142.421143 1115.402832,2142.016602 
	C1113.163330,2142.736816 1110.152344,2143.313721 1106.377930,2143.703613 
z"/>
<path fill="#E48142" opacity="1.000000" stroke="none" 
	d="
M744.467590,1130.518066 
	C746.826904,1130.386475 749.863892,1130.613770 753.576538,1131.189453 
	C751.216553,1131.317505 748.180969,1131.097168 744.467590,1130.518066 
z"/>
<path fill="#D3452D" opacity="1.000000" stroke="none" 
	d="
M1374.180542,1130.572998 
	C1374.779907,1130.879883 1375.119507,1131.379517 1375.770996,1132.221436 
	C1375.313232,1131.997803 1374.592529,1131.398315 1374.180542,1130.572998 
z"/>
<path fill="#D3452D" opacity="1.000000" stroke="none" 
	d="
M644.299561,1132.639648 
	C644.379395,1131.994629 644.821777,1131.499512 645.542603,1130.595215 
	C645.436523,1131.055176 645.050232,1131.923096 644.299561,1132.639648 
z"/>
<path fill="#CC7B52" opacity="1.000000" stroke="none" 
	d="
M1448.071533,1020.477539 
	C1448.305908,1020.140076 1448.674805,1020.185242 1449.599609,1020.278809 
	C1449.505615,1020.504883 1448.855835,1020.682556 1448.071533,1020.477539 
z"/>
<path fill="#D3452D" opacity="1.000000" stroke="none" 
	d="
M1932.161621,1132.650024 
	C1932.206909,1132.447144 1932.539429,1132.316162 1933.382812,1132.023682 
	C1933.568604,1132.422119 1933.087036,1132.708740 1932.161621,1132.650024 
z"/>
<path fill="#7B88B1" opacity="1.000000" stroke="none" 
	d="
M1932.241089,1180.393066 
	C1932.244873,1180.055786 1932.595947,1180.033569 1933.474609,1180.001953 
	C1934.090820,1180.338013 1934.179688,1180.683716 1934.088867,1181.533569 
	C1933.442017,1181.621216 1933.001831,1181.177979 1932.241089,1180.393066 
z"/>
</svg>
